<svg id="Layer_1" data-name="Layer 1" xmlns="http://www.w3.org/2000/svg" viewBox="0 0 657.57 209.16"><defs><style>.cls-1{font-size:28.94px;font-family:TrajanPro3-Regular, "Trajan Pro 3";}.cls-1,.cls-11,.cls-17,.cls-18{fill:#fff;}.cls-2{letter-spacing:0.01em;}.cls-3{letter-spacing:-0.02em;}.cls-4{letter-spacing:-0.02em;}.cls-5{letter-spacing:0em;}.cls-6{letter-spacing:-0.03em;}.cls-7{letter-spacing:0.02em;}.cls-8{letter-spacing:-0.02em;}.cls-9{letter-spacing:-0.02em;}.cls-10{letter-spacing:-0.01em;}.cls-11{font-size:155.74px;stroke-width:1.29px;font-family:AbeatbyKai, abeatbyKai;}.cls-11,.cls-18{stroke:#fff;stroke-miterlimit:10;}.cls-12{letter-spacing:-0.12em;}.cls-13{letter-spacing:-0.28em;}.cls-14{letter-spacing:-0.31em;}.cls-15{letter-spacing:-0.04em;}.cls-16{letter-spacing:-0.03em;}.cls-18{stroke-width:0.12px;}</style></defs><text class="cls-1" transform="translate(210.89 198.18)">THE <tspan class="cls-2" x="74.77" y="0">O</tspan><tspan x="101.48" y="0">OM</tspan><tspan class="cls-3" x="158.35" y="0">P</tspan><tspan x="176.32" y="0">H </tspan><tspan class="cls-4" x="213.44" y="0">O</tspan><tspan class="cls-5" x="239.49" y="0">F </tspan><tspan class="cls-6" x="266.02" y="0">F</tspan><tspan class="cls-7" x="282.29" y="0">A</tspan><tspan class="cls-8" x="303.21" y="0">S</tspan><tspan x="319.21" y="0">H</tspan><tspan class="cls-9" x="346.93" y="0">I</tspan><tspan class="cls-10" x="359.23" y="0">O</tspan><tspan x="385.42" y="0">N</tspan></text><text class="cls-11" transform="translate(0 149.25) rotate(0.2)"><tspan class="cls-12">C</tspan><tspan class="cls-13" x="99.21" y="0">A</tspan><tspan class="cls-14" x="185.49" y="0">V</tspan><tspan class="cls-15" x="256.35" y="0">A</tspan><tspan class="cls-16" x="379.07" y="0">L</tspan><tspan x="443.55" y="0">EN</tspan></text><path class="cls-17" d="M634.59,97.59h0a.49.49,0,0,0,.17.06Zm-8.25,3.65-.41,0,.44,0S626.35,101.26,626.34,101.24Zm14.74-2.07h0s-.05-.07-.09-.08a.3.3,0,0,1,.08.08l.06.06A.21.21,0,0,0,641.08,99.17Zm.11.15,0,0h0a.53.53,0,0,1,.06.1S641.2,99.34,641.19,99.32Zm0,.05h0a.47.47,0,0,1,0,.1A.69.69,0,0,0,641.22,99.37Z"/><path class="cls-17" d="M649.46,24l-.27-.11.23-.06A1,1,0,0,1,649.46,24Z"/><path class="cls-17" d="M636,22.82c.27-.37.53-.7.77-1C636.5,22.12,636.25,22.45,636,22.82Z"/><path class="cls-17" d="M642.94,20.5a5.92,5.92,0,0,1-2.17,0A6.41,6.41,0,0,0,642.94,20.5Z"/><path class="cls-17" d="M648.54,28.27c-.39.28-1,0-1.45.06a3,3,0,0,1,.84-.13h.17Z"/><path class="cls-17" d="M636,22.82c.27-.37.53-.7.77-1C636.5,22.12,636.25,22.45,636,22.82Z"/><path class="cls-17" d="M642.94,20.5a5.92,5.92,0,0,1-2.17,0A6.41,6.41,0,0,0,642.94,20.5Z"/><path class="cls-17" d="M648.54,28.27c-.39.28-1,0-1.45.06l-2,1a.46.46,0,0,0,.07-.07l0,0a3.43,3.43,0,0,1,2.76-1.05h.17Z"/><path class="cls-17" d="M656.16,79.13c-1-5-2.47-10-3.63-15-.13-2.17-2.88-1.71-4.1-1.28-6,2.12-4.57-.68-5.32-5.58,3.65,1.58,3.78-4.3,4.87-6.54,1.06-5.93,5.21-13.2,3.11-19.1a3.39,3.39,0,0,1-.28-.71,9.16,9.16,0,0,0-1.42-2.24,2.27,2.27,0,0,0-.85-.4c-.39.28-1,0-1.45.06l-2,1c-1.36,1.38-2.17,3.54-4.53,3.76a4.83,4.83,0,0,0-4.68,2.81.54.54,0,0,0-.18.52l0-.06c-.7,2-.17,3.89-1,6-1.39-2-3.26-4.58-5.72-4.2,0,.73-.4.27-.59.18-1.61-.35-4.42-3.12-5.68-2.06-.36,1.07,1.24,1,1.84,1.58-1.42,3,7.64,4.44,9.07,6.68-.3,6.55-3.59,13.78-6.64,19.79-2.74,3.73-4.28,8.54-7.72,11.65-1.91,1.72-9.39,4.93-4.82,7.48,3.3,5.36,8.66,3.33,13.33,6.62,3.47,2.69,6.68,2.21,6.87,7.51l.17.07a.49.49,0,0,1-.17-.06l.42.94.08,0H635l.51,1.84h0l.11.06-.13-.06a4.8,4.8,0,0,0,.17,1.51c.3,1.28-3.77-.12-4.52,0-1.59-.23-3.26-.38-4.8-.66-.83.1-2.12-.79-2.4.43q-3,11.28-6.09,22.54c-.19.7.07.76.61.82,22.85,1.82,17.71,7.15,18.75-16.08,1.68,8,1.35,16.24,1.85,24.34.11,1.13-1.27.17-1.06,2.05,0,3.11,2.17,8.33-1.53,9.92-1.9,1.4,1.16,4.71,3.1,4.1,4-.37,2.38-7.44,5.45-9.45a49,49,0,0,1-.75,8.53c0,.26-.48.76.26.83s.52-.37.53-.72c-.86-4.8,3.9-10.64.6-14.59-.9-.87-2.11-1.6-2-3,1.25-11.46,3.06-22.62-1.13-33.74.21-.89-.62-2,.06-2.69a1.11,1.11,0,0,0,.71-1.22,5,5,0,0,1-.9-.71,5.78,5.78,0,0,0,.91.7,7.06,7.06,0,0,0,.2-3.73h0c.37-.8-.89-2.33.08-2.62,4-.72,7.91-1.62,11.84-2.54C657.67,83.72,656.23,80.77,656.16,79.13ZM637.54,97.39a.83.83,0,0,0-.16-.12.51.51,0,0,1,.16.11Zm2-.61h0l.07,0Zm1-.45h0l.06,0Zm.52,2.84a.3.3,0,0,0-.08-.08s.06,0,.09.08h0a.21.21,0,0,1,0,.06Zm.15.2a.53.53,0,0,0-.06-.1h0l0,0,0,.05a.69.69,0,0,1,0,.1A.47.47,0,0,0,641.21,99.37Z"/><path class="cls-17" d="M634.76,97.66a.49.49,0,0,1-.17-.06h0Z"/><path class="cls-17" d="M637.83,96.16a1.19,1.19,0,0,0-.81,0A1.08,1.08,0,0,1,637.83,96.16Z"/><path class="cls-17" d="M641.12,99.23l-.06-.06h0Z"/><path class="cls-17" d="M641.26,99.47a.47.47,0,0,0,0-.1.53.53,0,0,0-.06-.1h0l0,0,0,.05A.69.69,0,0,1,641.26,99.47Z"/><path class="cls-17" d="M641.14,95.06l-.6.59h0Z"/><path class="cls-17" d="M639.54,96.77h.07Zm1.54,2.4h0s-.05-.07-.09-.08a.3.3,0,0,1,.08.08l.06.06A.21.21,0,0,0,641.08,99.17Zm.11.15,0,0a.53.53,0,0,1,.06.1S641.2,99.34,641.19,99.32Zm0,.05h0a.47.47,0,0,1,0,.1A.69.69,0,0,0,641.22,99.37Zm9.59-68.46a3.39,3.39,0,0,0,.28.71A6.15,6.15,0,0,0,650.81,30.91Z"/><path class="cls-18" d="M636,22.82c.27-.37.53-.7.77-1C636.5,22.12,636.25,22.45,636,22.82Z"/><path class="cls-18" d="M642.94,20.5a5.92,5.92,0,0,1-2.17,0A6.41,6.41,0,0,0,642.94,20.5Z"/><path class="cls-18" d="M646,20.76h0l0,0Z"/><path class="cls-17" d="M636.74,21.84c-.24.28-.49.61-.77,1C636.24,22.45,636.5,22.12,636.74,21.84Z"/><path class="cls-17" d="M659.45,12.42c-.55-2.21-4.7-2.36-10-1.34-1.32-12.76-22.14-12.26-21.94,1.49a10.48,10.48,0,0,0,1.72,6.17c-3.41,2.12-5.42,4.28-4.63,6,.63,2.55,6.07,2.36,12.49.78.14,1.05,0,1,1.43,1.24.45,1.18,1.83,1.32,2.51,2.27.79.8,1.69-.68,2.32-1.11l1.94-1.75c.08.15,0,.42.18.44a6,6,0,0,1,2.6-2.25,8.44,8.44,0,0,1,1-.41,3.08,3.08,0,0,1-.5-.33,3.65,3.65,0,0,0,.54.32l.23-.06c-.12-.48-.25-.95.48-1.18a14.82,14.82,0,0,0,0-1.64C656,18.19,660.58,14.84,659.45,12.42ZM646,20.77l0,0h0Z"/><path class="cls-17" d="M642.94,20.5a5.92,5.92,0,0,1-2.17,0A6.41,6.41,0,0,0,642.94,20.5Z"/><path class="cls-17" d="M646,20.76h0l0,0Z"/><path class="cls-17" d="M647.09,28.33l-2,1-.1.05.17-.12,0,0A6.23,6.23,0,0,1,647.09,28.33Z"/><path class="cls-17" d="M649.46,24l-.31-.1h0l.23-.06A1,1,0,0,1,649.46,24Z"/><path class="cls-17" d="M651.2,31.77a.83.83,0,0,1-.11-.15,3.39,3.39,0,0,1-.28-.71l-.06-.18A9.33,9.33,0,0,1,651.2,31.77Z"/><path class="cls-17" d="M639.61,96.79h-.07Z"/></svg>