<svg id="Layer_1" data-name="Layer 1" xmlns="http://www.w3.org/2000/svg" viewBox="0 0 659.85 163.14"><defs><style>.cls-1{font-size:155.74px;stroke-width:1.29px;font-family:AbeatbyKai, abeatbyKai;}.cls-1,.cls-7,.cls-8{fill:#fff;}.cls-1,.cls-8{stroke:#fff;stroke-miterlimit:10;}.cls-2{letter-spacing:-0.12em;}.cls-3{letter-spacing:-0.28em;}.cls-4{letter-spacing:-0.31em;}.cls-5{letter-spacing:-0.04em;}.cls-6{letter-spacing:-0.03em;}.cls-8{stroke-width:0.12px;}</style></defs><text class="cls-1" transform="translate(0.46 149.71) rotate(0.2)"><tspan class="cls-2">C</tspan><tspan class="cls-3" x="99.21" y="0">A</tspan><tspan class="cls-4" x="185.49" y="0">V</tspan><tspan class="cls-5" x="256.35" y="0">A</tspan><tspan class="cls-6" x="379.07" y="0">L</tspan><tspan x="443.55" y="0">EN</tspan></text><path class="cls-7" d="M635.05,98.05h0a.49.49,0,0,0,.17.06Zm-8.25,3.65-.41,0,.44,0S626.81,101.72,626.8,101.7Zm14.74-2.07h0s0-.07-.09-.08a.3.3,0,0,1,.08.08l.06.06Zm.11.15,0,0h0a.53.53,0,0,1,.06.1S641.66,99.8,641.65,99.78Zm0,0h0a.47.47,0,0,1,.05.1A.69.69,0,0,0,641.68,99.83Z"/><path class="cls-7" d="M649.92,24.49l-.27-.11.23-.06A1,1,0,0,1,649.92,24.49Z"/><path class="cls-7" d="M636.43,23.28c.27-.37.53-.7.77-1C637,22.58,636.71,22.91,636.43,23.28Z"/><path class="cls-7" d="M643.4,21a5.92,5.92,0,0,1-2.17,0A6.41,6.41,0,0,0,643.4,21Z"/><path class="cls-7" d="M649,28.73c-.39.28-1,0-1.45.06a3,3,0,0,1,.84-.13h.17Z"/><path class="cls-7" d="M636.43,23.28c.27-.37.53-.7.77-1C637,22.58,636.71,22.91,636.43,23.28Z"/><path class="cls-7" d="M643.4,21a5.92,5.92,0,0,1-2.17,0A6.41,6.41,0,0,0,643.4,21Z"/><path class="cls-7" d="M649,28.73c-.39.28-1,0-1.45.06l-2,1a.46.46,0,0,0,.07-.07l0,0a3.43,3.43,0,0,1,2.76-1.05h.17Z"/><path class="cls-7" d="M656.62,79.59c-1-5-2.47-10-3.63-15-.13-2.17-2.88-1.71-4.1-1.28-6,2.12-4.57-.68-5.32-5.58,3.65,1.58,3.78-4.3,4.87-6.54,1.06-5.93,5.21-13.2,3.11-19.1a3.39,3.39,0,0,1-.28-.71,9.16,9.16,0,0,0-1.42-2.24,2.27,2.27,0,0,0-.85-.4c-.39.28-1,0-1.45.06l-2,1c-1.36,1.38-2.17,3.54-4.53,3.76a4.83,4.83,0,0,0-4.68,2.81.54.54,0,0,0-.18.52l0-.06c-.7,2-.17,3.89-1,6-1.39-2-3.26-4.58-5.72-4.2,0,.73-.4.27-.59.18-1.61-.35-4.42-3.12-5.68-2.06-.36,1.07,1.24,1,1.84,1.58-1.42,3,7.64,4.44,9.07,6.68-.3,6.55-3.59,13.78-6.64,19.79-2.74,3.73-4.28,8.54-7.72,11.65-1.91,1.72-9.39,4.93-4.82,7.48,3.3,5.36,8.66,3.33,13.33,6.62,3.47,2.69,6.68,2.21,6.87,7.51l.17.07a.49.49,0,0,1-.17-.06l.42.94.08,0h-.08l.51,1.84h0l.11.06-.13-.06a4.8,4.8,0,0,0,.17,1.51c.3,1.28-3.77-.12-4.52,0-1.59-.23-3.26-.38-4.8-.66-.83.1-2.12-.79-2.4.43q-3,11.28-6.09,22.54c-.19.7.07.76.61.82,22.85,1.82,17.71,7.15,18.75-16.08,1.68,8,1.35,16.24,1.85,24.34.11,1.13-1.27.17-1.06,2.05,0,3.11,2.17,8.33-1.53,9.92-1.9,1.4,1.16,4.71,3.1,4.1,4-.37,2.38-7.44,5.45-9.45a49,49,0,0,1-.75,8.53c0,.26-.48.76.26.83s.52-.37.53-.72c-.86-4.8,3.9-10.64.6-14.59-.9-.87-2.11-1.6-2-3C645.39,120,647.2,108.8,643,97.68c.21-.89-.62-2,.06-2.69a1.11,1.11,0,0,0,.71-1.22,5,5,0,0,1-.9-.71,5.78,5.78,0,0,0,.91.7A7.06,7.06,0,0,0,644,90h0c.37-.8-.89-2.33.08-2.62,4-.72,7.91-1.62,11.84-2.54C658.13,84.18,656.69,81.23,656.62,79.59ZM638,97.85a.83.83,0,0,0-.16-.12.51.51,0,0,1,.16.11Zm2-.61h0l.07,0Zm1-.45h0l.06,0Zm.52,2.84a.3.3,0,0,0-.08-.08s.06,0,.09.08h0l0,.06Zm.15.2a.53.53,0,0,0-.06-.1h0l0,0,0,0a.69.69,0,0,1,0,.1A.47.47,0,0,0,641.67,99.83Z"/><path class="cls-7" d="M635.22,98.12a.49.49,0,0,1-.17-.06h0Z"/><path class="cls-7" d="M638.28,96.62a1.16,1.16,0,0,0-.8,0A1.1,1.1,0,0,1,638.28,96.62Z"/><path class="cls-7" d="M641.58,99.69l-.06-.06h0Z"/><path class="cls-7" d="M641.72,99.93a.47.47,0,0,0-.05-.1.53.53,0,0,0-.06-.1h0l0,0,0,0A.69.69,0,0,1,641.72,99.93Z"/><path class="cls-7" d="M641.59,95.52l-.59.59h0Z"/><path class="cls-7" d="M640,97.23h.07Zm1.54,2.4h0s0-.07-.09-.08a.3.3,0,0,1,.08.08l.06.06Zm.11.15,0,0a.53.53,0,0,1,.06.1S641.66,99.8,641.65,99.78Zm0,0h0a.47.47,0,0,1,.05.1A.69.69,0,0,0,641.68,99.83Zm9.59-68.46a3.39,3.39,0,0,0,.28.71A6.15,6.15,0,0,0,651.27,31.37Z"/><path class="cls-8" d="M636.43,23.28c.27-.37.53-.7.77-1C637,22.58,636.71,22.91,636.43,23.28Z"/><path class="cls-8" d="M643.4,21a5.92,5.92,0,0,1-2.17,0A6.41,6.41,0,0,0,643.4,21Z"/><path class="cls-8" d="M646.42,21.22h0l0,0Z"/><path class="cls-7" d="M637.2,22.3c-.24.28-.49.61-.77,1C636.7,22.91,637,22.58,637.2,22.3Z"/><path class="cls-7" d="M659.91,12.88c-.55-2.21-4.7-2.36-10-1.34C648.62-1.22,627.8-.72,628,13a10.48,10.48,0,0,0,1.72,6.17c-3.41,2.12-5.42,4.28-4.63,6,.63,2.55,6.07,2.36,12.49.78.14,1.05,0,1,1.43,1.24.45,1.18,1.83,1.32,2.51,2.27s1.69-.68,2.32-1.11l1.94-1.75c.08.15,0,.42.18.44a6,6,0,0,1,2.6-2.25,8.44,8.44,0,0,1,1.05-.41,3.08,3.08,0,0,1-.5-.33,3.65,3.65,0,0,0,.54.32l.23-.06c-.12-.48-.25-.95.48-1.18a14.82,14.82,0,0,0,0-1.64C656.48,18.65,661,15.3,659.91,12.88Zm-13.49,8.35,0,0h0Z"/><path class="cls-7" d="M643.4,21a5.92,5.92,0,0,1-2.17,0A6.41,6.41,0,0,0,643.4,21Z"/><path class="cls-7" d="M646.42,21.22h0l0,0Z"/><path class="cls-7" d="M647.55,28.79l-2,1-.1.05.17-.12,0,0A6.23,6.23,0,0,1,647.55,28.79Z"/><path class="cls-7" d="M649.92,24.49l-.31-.1h0l.23-.06A1,1,0,0,1,649.92,24.49Z"/><path class="cls-7" d="M651.66,32.23a.83.83,0,0,1-.11-.15,3.39,3.39,0,0,1-.28-.71l-.06-.18A9.33,9.33,0,0,1,651.66,32.23Z"/><path class="cls-7" d="M640.07,97.25H640Z"/></svg>